# xmcd
#
# Track frame offsets:
#	150
#	20360
#	39747
#
# Disc length: 710 seconds
#
# Revision: 0
# Processed by: cddbd v1.5.1PL0 Copyright (c) Steve Scherf et al.
# Submitted via: audiograbber 1.83.01
#
DISCID=1c02c403
DTITLE=Maria McKee - This Perfect Dress [CD Single)
DYEAR=1900
DGENRE=Country
TTITLE0=This Perfect Dress
TTITLE1=Ribbons
TTITLE2=Her I Shred
EXTD=
EXTT0=
EXTT1=
EXTT2=
PLAYORDER=
